<?xml version="1.0" encoding="UTF-8" standalone="no" ?>
<!DOCTYPE svg PUBLIC "-//W3C//DTD SVG 1.1//EN" "http://www.w3.org/Graphics/SVG/1.1/DTD/svg11.dtd">
<svg xmlns="http://www.w3.org/2000/svg" xmlns:xlink="http://www.w3.org/1999/xlink" version="1.1" width="1080" height="1080" viewBox="0 0 1080 1080" xml:space="preserve">
    <defs></defs>

    <!-- Cercle principal -->
    <g transform="matrix(1 0 0 1 540 540)">
        <rect style="stroke: none; fill: rgb(255,255,255); visibility: hidden;" vector-effect="non-scaling-stroke" x="-540" y="-540" width="1080" height="1080" />
    </g>

    <!-- Forme principale -->
    <g transform="matrix(1 0 0 1 540 540)">
        <g>
            <path style="fill: rgb(1,35,69);" vector-effect="non-scaling-stroke" transform="translate(-106.5, -106.5)" d="M1 84 C1 56 1 28.5 1 1 C71.33 1 141.67 1 212 1 C212 71.33 212 141.67 212 212 C141.67 212 71.33 212 1 212 C1 169.5 1 127 1 84" />
        </g>

        <!-- Trace verte -->
        <g transform="matrix(1 0 0 1 30.37 30.35)">
            <path style="fill: rgb(181,200,22);" vector-effect="non-scaling-stroke" transform="translate(-136.87, -136.85)" d="M160.94 107.95 C166.64 102.14 172.33 96.31 178.05 90.52 C179.85 88.7 181.9 86.68 184.42 89.11 C187.18 91.78 184.98 93.85 183.03 95.79 C158.55 120.26 134.08 144.74 109.6 169.21 C104.9 173.92 100.17 178.61 95.48 183.34 C93.6 185.24 91.56 186.97 89.15 184.47 C86.73 181.96 88.65 179.91 90.48 178.09 C111.42 157.15 132.37 136.22 153.88 114.98 C154.63 114.13 154.82 113.57 155.01 113.01 C155.01 113.01 154.99 113.00 155.37 113.01 C157.15 111.67 158.57 110.31 159.98 108.95 C159.98 108.95 160.00 109.00 160.20 108.89 C160.58 108.50 160.76 108.22 160.94 107.95" />
        </g>
    </g>
</svg>
