<?xml version="1.0" encoding="UTF-8" standalone="no" ?>
<!DOCTYPE svg PUBLIC "-//W3C//DTD SVG 1.1//EN" "http://www.w3.org/Graphics/SVG/1.1/DTD/svg11.dtd">
<svg xmlns="http://www.w3.org/2000/svg" xmlns:xlink="http://www.w3.org/1999/xlink" version="1.1" width="1080" height="1080" viewBox="0 0 1080 1080" xml:space="preserve">
<desc>Created with Fabric.js 5.2.4</desc>
<defs>
</defs>
<g transform="matrix(1 0 0 1 540 540)" id="0cb58a35-539f-459e-8c1f-a29da9043782"  >
<rect style="stroke: none; stroke-width: 1; stroke-dasharray: none; stroke-linecap: butt; stroke-dashoffset: 0; stroke-linejoin: miter; stroke-miterlimit: 4; fill: rgb(255,255,255); fill-rule: nonzero; opacity: 1; visibility: hidden;" vector-effect="non-scaling-stroke"  x="-540" y="-540" rx="0" ry="0" width="1080" height="1080" />
</g>
<g transform="matrix(1 0 0 1 540 540)" id="4aa231ca-71ec-4e32-b6fe-a1ff8a220733"  >
</g>
<g transform="matrix(1 0 0 1 540 540)"  >
<g style="" vector-effect="non-scaling-stroke"   >
		<g transform="matrix(1 0 0 1 0 0)"  >
<path style="stroke: none; stroke-width: 1; stroke-dasharray: none; stroke-linecap: butt; stroke-dashoffset: 0; stroke-linejoin: miter; stroke-miterlimit: 4; fill: rgb(1,35,69); fill-rule: nonzero; opacity: 1;" vector-effect="non-scaling-stroke"  transform=" translate(-106.5, -106.5)" d="M 1 84 C 1 56 1 28.500004 1 1.000004 C 71.333328 1.000002 141.666656 1.000002 212 1.000001 C 212 71.333321 212 141.666641 212 211.999969 C 141.666687 211.999985 71.333359 211.999985 1.000021 212 C 1 169.5 1 127 1 84 M 154.43605 113.245789 C 154.263718 113.830383 154.091385 114.414978 153.32341 115.282974 C 132.37352 136.21579 111.421036 157.146011 90.478264 178.085938 C 88.652626 179.911331 86.725693 181.958344 89.148071 184.469193 C 91.563835 186.973129 93.60051 185.239029 95.48497 183.336472 C 100.168983 178.607422 104.895103 173.920105 109.601868 169.213577 C 134.076736 144.73999 158.549088 120.263885 183.028503 95.794853 C 184.97879 93.84539 187.183975 91.779449 184.416946 89.109596 C 181.902786 86.683762 179.847412 88.699005 178.047302 90.52063 C 172.325821 96.310486 166.639435 102.135002 160.461334 108.130173 C 160.291031 108.417183 160.120712 108.704201 160.001266 109.003281 C 160.001266 109.003281 159.983688 108.954056 159.304352 109.020203 C 157.874298 110.349861 156.444244 111.679512 154.99939 112.999695 C 154.99939 112.999695 155.009094 113.014565 154.43605 113.245789 M 100.374153 42.69688 C 100.601471 50.125412 100.828796 57.553944 101.719078 65.251991 C 104.706551 66.858353 105.222404 64.946938 105.258926 62.657391 C 105.327873 58.335358 105.278053 54.011436 105.277824 49.688297 C 105.277634 46.056557 105.277786 42.424816 105.277786 38.793079 C 105.66452 38.760006 106.051247 38.726933 106.437981 38.693859 C 110.658432 44.281593 114.878876 49.869328 119.635124 56.166447 C 124.550499 49.636902 128.839951 43.938835 133.941833 37.161522 C 133.941833 46.315868 133.849838 54.06208 134.028503 61.802048 C 134.059845 63.160183 135.22641 64.492119 135.868698 65.836151 C 136.696854 64.491776 138.210556 63.163551 138.242661 61.80043 C 138.461853 52.494205 138.456284 43.179146 138.294434 33.870914 C 138.2668 32.282063 137.141068 30.712307 136.522644 29.133728 C 135.133057 30.09778 133.393372 30.79372 132.414322 32.072163 C 128.103073 37.701694 124.011253 43.499268 119.645195 49.50378 C 115.302254 43.451466 111.376816 37.697887 107.103073 32.215847 C 105.975899 30.769991 103.77314 30.162649 101.594116 28.727526 C 101.338593 31.481892 101.083076 34.236256 100.975632 37.818577 C 100.926643 39.215965 100.877655 40.613358 100.374153 42.69688 M 167.727951 29.533331 C 164.967163 28.087114 163.305511 29.455685 162.14505 31.812778 C 157.315811 41.621647 152.459198 51.418438 147.804367 61.309887 C 147.252991 62.481552 147.881058 64.208244 147.962387 65.677658 C 149.16217 64.8349 151.126724 64.20787 151.435364 63.113743 C 153.195938 56.872402 157.253098 54.968594 163.269363 55.980064 C 164.403473 56.170734 165.620972 56.161777 166.759018 55.983444 C 173.133148 54.98465 178.037491 56.313114 180.009293 63.392166 C 180.278763 64.359596 182.332214 64.830116 183.559677 65.530708 C 183.624893 64.090576 184.224167 62.392105 183.671997 61.250607 C 178.628189 50.823315 173.384094 40.492897 167.727951 29.533331 M 81.916634 61.94783 C 76.612877 62.671852 71.758392 61.667336 67.234726 58.648037 C 66.340675 58.051311 64.639061 58.664543 63.309872 58.719784 C 63.818283 59.792145 64.034554 61.311234 64.881882 61.865341 C 70.993851 65.862274 77.623947 67.428802 84.768875 65.103531 C 89.050308 63.710159 91.818169 60.993969 92.070946 56.138374 C 92.336754 51.032436 89.243637 48.511688 85.095238 47.06147 C 81.212814 45.704239 76.928009 45.331726 73.25975 43.596729 C 71.359489 42.697952 69.126457 39.595085 69.387749 37.836178 C 69.659355 36.007736 72.693718 33.369392 74.633629 33.268387 C 78.430382 33.070705 82.293983 34.474438 86.155746 35.03846 C 87.531654 35.23941 88.98243 34.92783 90.399025 34.850208 C 89.571243 33.650547 88.924652 31.620398 87.884628 31.393492 C 83.114258 30.352703 78.205032 29.10091 73.400818 29.294441 C 68.31485 29.499325 64.571449 33.955051 64.181709 38.332886 C 63.80291 42.58791 66.592133 46.172691 72.013145 47.909775 C 75.146164 48.9137 78.618904 49.052914 81.556168 50.409603 C 83.85376 51.470837 86.902222 53.642563 87.144279 55.623096 C 87.371407 57.481434 84.354507 59.736259 81.916634 61.94783 M 30.581251 65.845978 C 31.479742 64.401039 32.976906 63.025642 33.15448 61.496967 C 33.547333 58.115013 33.276726 54.655998 33.276726 51.551155 C 39.66283 51.007511 45.381634 50.642994 51.059345 49.944477 C 52.350483 49.785629 53.499325 48.470184 54.713661 47.687096 C 53.328423 47.127934 51.957207 46.131134 50.555485 46.086208 C 44.825657 45.902546 39.08651 46.009609 33.661892 46.009609 C 33.661892 41.130318 33.661892 37.222134 33.661892 32.861404 C 41.631721 32.861404 49.215057 32.861404 56.798397 32.861404 C 57.022152 32.298939 57.245907 31.736471 57.469662 31.174006 C 56.105591 30.479366 54.758732 29.227154 53.374542 29.184433 C 46.565369 28.974283 39.745609 29.140368 32.931015 29.057205 C 29.951317 29.020844 28.835453 30.265787 28.877031 33.253422 C 28.999617 42.062134 28.865423 50.874249 28.958727 59.683685 C 28.978848 61.583321 29.531416 63.477322 30.581251 65.845978 z" stroke-linecap="round" />
</g>
		<g transform="matrix(1 0 0 1 30.37 30.35)"  >
<path style="stroke: none; stroke-width: 1; stroke-dasharray: none; stroke-linecap: butt; stroke-dashoffset: 0; stroke-linejoin: miter; stroke-miterlimit: 4; fill: rgb(181,200,22); fill-rule: nonzero; opacity: 1;" vector-effect="non-scaling-stroke"  transform=" translate(-136.87, -136.85)" d="M 160.939499 107.946136 C 166.639435 102.135002 172.325821 96.310486 178.047302 90.52063 C 179.847412 88.699005 181.902786 86.683762 184.416946 89.109596 C 187.183975 91.779449 184.97879 93.84539 183.028503 95.794853 C 158.549088 120.263885 134.076736 144.73999 109.601868 169.213577 C 104.895103 173.920105 100.168983 178.607422 95.48497 183.336472 C 93.60051 185.239029 91.563835 186.973129 89.148071 184.469193 C 86.725693 181.958344 88.652626 179.911331 90.478264 178.085938 C 111.421036 157.146011 132.37352 136.21579 153.882202 114.984604 C 154.630356 114.129013 154.819717 113.571785 155.009094 113.014565 C 155.009094 113.014565 154.99939 112.999695 155.369446 113.013458 C 157.154221 111.669502 158.568954 110.311775 159.983688 108.954056 C 159.983688 108.954056 160.001266 109.003281 160.203842 108.889786 C 160.584122 108.49958 160.76181 108.222862 160.939499 107.946136 z" stroke-linecap="round" />
</g>
		<g transform="matrix(1 0 0 1 13.12 -59.02)"  >
<path style="stroke: none; stroke-width: 1; stroke-dasharray: none; stroke-linecap: butt; stroke-dashoffset: 0; stroke-linejoin: miter; stroke-miterlimit: 4; fill: rgb(244,249,251); fill-rule: nonzero; opacity: 1;" vector-effect="non-scaling-stroke"  transform=" translate(-119.62, -47.48)" d="M 102.064285 29.170265 C 103.77314 30.162649 105.975899 30.769991 107.103073 32.215847 C 111.376816 37.697887 115.302254 43.451466 119.645195 49.50378 C 124.011253 43.499268 128.103073 37.701694 132.414322 32.072163 C 133.393372 30.79372 135.133057 30.09778 136.522644 29.133728 C 137.141068 30.712307 138.2668 32.282063 138.294434 33.870914 C 138.456284 43.179146 138.461853 52.494205 138.242661 61.80043 C 138.210556 63.163551 136.696854 64.491776 135.868698 65.836151 C 135.22641 64.492119 134.059845 63.160183 134.028503 61.802048 C 133.849838 54.06208 133.941833 46.315868 133.941833 37.161522 C 128.839951 43.938835 124.550499 49.636902 119.635124 56.166447 C 114.878876 49.869328 110.658432 44.281593 106.437981 38.693859 C 106.051247 38.726933 105.66452 38.760006 105.277786 38.793079 C 105.277786 42.424816 105.277634 46.056557 105.277824 49.688297 C 105.278053 54.011436 105.327873 58.335358 105.258926 62.657391 C 105.222404 64.946938 104.706551 66.858353 101.359863 64.650459 C 100.943314 56.702866 100.885986 49.356808 100.828659 42.010746 C 100.877655 40.613358 100.926643 39.215965 100.974426 36.992409 C 101.336914 33.834248 101.7006 31.502256 102.064285 29.170265 z" stroke-linecap="round" />
</g>
		<g transform="matrix(1 0 0 1 59.24 -59.14)"  >
<path style="stroke: none; stroke-width: 1; stroke-dasharray: none; stroke-linecap: butt; stroke-dashoffset: 0; stroke-linejoin: miter; stroke-miterlimit: 4; fill: rgb(239,246,249); fill-rule: nonzero; opacity: 1;" vector-effect="non-scaling-stroke"  transform=" translate(-165.74, -47.36)" d="M 167.963211 29.833759 C 173.384094 40.492897 178.628189 50.823315 183.671997 61.250607 C 184.224167 62.392105 183.624893 64.090576 183.559677 65.530708 C 182.332214 64.830116 180.278763 64.359596 180.009293 63.392166 C 178.037491 56.313114 173.133148 54.98465 166.759018 55.983444 C 165.620972 56.161777 164.403473 56.170734 163.269363 55.980064 C 157.253098 54.968594 153.195938 56.872402 151.435364 63.113743 C 151.126724 64.20787 149.16217 64.8349 147.962387 65.677658 C 147.881058 64.208244 147.252991 62.481552 147.804367 61.309887 C 152.459198 51.418438 157.315811 41.621647 162.14505 31.812778 C 163.305511 29.455685 164.967163 28.087114 167.963211 29.833759 M 160.07431 52.039612 C 164.624512 52.039612 169.174713 52.039612 174.360657 52.039612 C 171.277878 45.754494 168.532043 40.156353 165.542511 34.061344 C 162.785065 39.744503 160.296356 44.748398 157.992645 49.836044 C 157.78595 50.292519 158.776611 51.291164 160.07431 52.039612 z" stroke-linecap="round" />
</g>
		<g transform="matrix(1 0 0 1 -28.8 -58.77)"  >
<path style="stroke: none; stroke-width: 1; stroke-dasharray: none; stroke-linecap: butt; stroke-dashoffset: 0; stroke-linejoin: miter; stroke-miterlimit: 4; fill: rgb(237,245,248); fill-rule: nonzero; opacity: 1;" vector-effect="non-scaling-stroke"  transform=" translate(-77.7, -47.73)" d="M 82.340858 61.882225 C 84.354507 59.736259 87.371407 57.481434 87.144279 55.623096 C 86.902222 53.642563 83.85376 51.470837 81.556168 50.409603 C 78.618904 49.052914 75.146164 48.9137 72.013145 47.909775 C 66.592133 46.172691 63.80291 42.58791 64.181709 38.332886 C 64.571449 33.955051 68.31485 29.499325 73.400818 29.294441 C 78.205032 29.10091 83.114258 30.352703 87.884628 31.393492 C 88.924652 31.620398 89.571243 33.650547 90.399025 34.850208 C 88.98243 34.92783 87.531654 35.23941 86.155746 35.03846 C 82.293983 34.474438 78.430382 33.070705 74.633629 33.268387 C 72.693718 33.369392 69.659355 36.007736 69.387749 37.836178 C 69.126457 39.595085 71.359489 42.697952 73.25975 43.596729 C 76.928009 45.331726 81.212814 45.704239 85.095238 47.06147 C 89.243637 48.511688 92.336754 51.032436 92.070946 56.138374 C 91.818169 60.993969 89.050308 63.710159 84.768875 65.103531 C 77.623947 67.428802 70.993851 65.862274 64.881882 61.865341 C 64.034554 61.311234 63.818283 59.792145 63.309872 58.719784 C 64.639061 58.664543 66.340675 58.051311 67.234726 58.648037 C 71.758392 61.667336 76.612877 62.671852 82.340858 61.882225 z" stroke-linecap="round" />
</g>
		<g transform="matrix(1 0 0 1 -63.33 -59.17)"  >
<path style="stroke: none; stroke-width: 1; stroke-dasharray: none; stroke-linecap: butt; stroke-dashoffset: 0; stroke-linejoin: miter; stroke-miterlimit: 4; fill: rgb(245,250,252); fill-rule: nonzero; opacity: 1;" vector-effect="non-scaling-stroke"  transform=" translate(-43.17, -47.33)" d="M 30.209988 65.609947 C 29.531416 63.477322 28.978848 61.583321 28.958727 59.683685 C 28.865423 50.874249 28.999617 42.062134 28.877031 33.253422 C 28.835453 30.265787 29.951317 29.020844 32.931015 29.057205 C 39.745609 29.140368 46.565369 28.974283 53.374542 29.184433 C 54.758732 29.227154 56.105591 30.479366 57.469662 31.174006 C 57.245907 31.736471 57.022152 32.298939 56.798397 32.861404 C 49.215057 32.861404 41.631721 32.861404 33.661892 32.861404 C 33.661892 37.222134 33.661892 41.130318 33.661892 46.009609 C 39.08651 46.009609 44.825657 45.902546 50.555485 46.086208 C 51.957207 46.131134 53.328423 47.127934 54.713661 47.687096 C 53.499325 48.470184 52.350483 49.785629 51.059345 49.944477 C 45.381634 50.642994 39.66283 51.007511 33.276726 51.551155 C 33.276726 54.655998 33.547333 58.115013 33.15448 61.496967 C 32.976906 63.025642 31.479742 64.401039 30.209988 65.609947 z" stroke-linecap="round" />
</g>
		<g transform="matrix(1 0 0 1 -5.69 -53.07)"  >
<path style="stroke: none; stroke-width: 1; stroke-dasharray: none; stroke-linecap: butt; stroke-dashoffset: 0; stroke-linejoin: miter; stroke-miterlimit: 4; fill: rgb(7,32,58); fill-rule: nonzero; opacity: 1;" vector-effect="non-scaling-stroke"  transform=" translate(-100.81, -53.43)" d="M 100.601402 42.353813 C 100.885986 49.356808 100.943314 56.702866 101.028381 64.515701 C 100.828796 57.553944 100.601471 50.125412 100.601402 42.353813 z" stroke-linecap="round" />
</g>
		<g transform="matrix(1 0 0 1 -5.14 -73.74)"  >
<path style="stroke: none; stroke-width: 1; stroke-dasharray: none; stroke-linecap: butt; stroke-dashoffset: 0; stroke-linejoin: miter; stroke-miterlimit: 4; fill: rgb(7,32,58); fill-rule: nonzero; opacity: 1;" vector-effect="non-scaling-stroke"  transform=" translate(-101.36, -32.76)" d="M 101.829201 28.948895 C 101.7006 31.502256 101.336914 33.834248 100.900391 36.57843 C 101.083076 34.236256 101.338593 31.481892 101.829201 28.948895 z" stroke-linecap="round" />
</g>
		<g transform="matrix(1 0 0 1 51.01 4.5)"  >
<path style="stroke: none; stroke-width: 1; stroke-dasharray: none; stroke-linecap: butt; stroke-dashoffset: 0; stroke-linejoin: miter; stroke-miterlimit: 4; fill: rgb(163,187,54); fill-rule: nonzero; opacity: 1;" vector-effect="non-scaling-stroke"  transform=" translate(-157.51, -111)" d="M 159.644012 108.987122 C 158.568954 110.311775 157.154221 111.669502 155.376862 113.018204 C 156.444244 111.679512 157.874298 110.349861 159.644012 108.987122 z" stroke-linecap="round" />
</g>
		<g transform="matrix(1 0 0 1 47.95 7.49)"  >
<path style="stroke: none; stroke-width: 1; stroke-dasharray: none; stroke-linecap: butt; stroke-dashoffset: 0; stroke-linejoin: miter; stroke-miterlimit: 4; fill: rgb(163,187,54); fill-rule: nonzero; opacity: 1;" vector-effect="non-scaling-stroke"  transform=" translate(-154.45, -113.99)" d="M 154.722565 113.130173 C 154.819717 113.571785 154.630356 114.129013 154.180023 114.842903 C 154.091385 114.414978 154.263718 113.830383 154.722565 113.130173 z" stroke-linecap="round" />
</g>
		<g transform="matrix(1 0 0 1 53.94 1.96)"  >
<path style="stroke: none; stroke-width: 1; stroke-dasharray: none; stroke-linecap: butt; stroke-dashoffset: 0; stroke-linejoin: miter; stroke-miterlimit: 4; fill: rgb(163,187,54); fill-rule: nonzero; opacity: 1;" vector-effect="non-scaling-stroke"  transform=" translate(-160.44, -108.46)" d="M 160.700409 108.038155 C 160.76181 108.222862 160.584122 108.49958 160.178406 108.883759 C 160.120712 108.704201 160.291031 108.417183 160.700409 108.038155 z" stroke-linecap="round" />
</g>
		<g transform="matrix(1 0 0 1 59.66 -63.45)"  >
<path style="stroke: none; stroke-width: 1; stroke-dasharray: none; stroke-linecap: butt; stroke-dashoffset: 0; stroke-linejoin: miter; stroke-miterlimit: 4; fill: rgb(11,39,68); fill-rule: nonzero; opacity: 1;" vector-effect="non-scaling-stroke"  transform=" translate(-166.16, -43.05)" d="M 159.642761 52.038815 C 158.776611 51.291164 157.78595 50.292519 157.992645 49.836044 C 160.296356 44.748398 162.785065 39.744503 165.542511 34.061344 C 168.532043 40.156353 171.277878 45.754494 174.360657 52.039612 C 169.174713 52.039612 164.624512 52.039612 159.642761 52.038815 z" stroke-linecap="round" />
</g>
</g>
</g>
</svg>